<svg xmlns="http://www.w3.org/2000/svg" height="480" width="640" viewBox="0 0 640 480"><defs><clipPath id="a"><path fill-opacity=".67" d="M-79.698 0h682.67v512h-682.67z"/></clipPath></defs><g clip-path="url(#a)" fill-rule="evenodd" transform="translate(74.717) scale(.9375)"><path fill="#fff" d="M-120 0h763.27v511.49H-120z"/><path d="M-118.31.617h760.88v216.09h-760.88z"/><path fill="#0061ff" d="M21.3 203.23h505.01v113.82H21.3z"/><path d="M642.75 1.753v510.25H262.03L642.75 1.753z" fill="#e20000"/><path d="M-118.69 1.753v510.25h380.72L-118.69 1.753z" fill="#e20000"/><path d="M440.37 203.34l-76.31-19.363L428.98 135l-79.726 11.39 41.003-69.475-70.616 41.003 12.53-80.867-47.837 63.783L264.97 26.8l-21.64 76.31-47.837-64.92 13.667 83.145-70.615-43.282 41.003 69.476-77.45-12.53 63.783 47.838-79.727 20.5h354.22z" fill="#ffd600"/></g><style xmlns="">@font-face{
    font-family: 'bnazanin';
    src:'bnazanin.ttf';
}
.dideo-tooltip {
    position: relative;
    display: inline-block;
    font-family: 'bnazanin';
    margin-bottom: 2px;
}

.dideo-tooltip .tooltiptext {
    visibility: hidden;
    font-family: 'bnazanin';
    width: 120px;
    font-size: 13px;
    background-color: black;
    color: #fff;
    text-align: center;
    border-radius: 6px;
    padding: 5px 0;
    position: absolute;
    z-index: 1;
    top: 0px;
    left: 110%;
}
.dideo-img{
    width: 25px;
    height: 25px;
    margin-bottom: -7px;
    filter: drop-shadow(0px 0px 2px #adadad);
    webkit:filter: drop-shadow(0px 0px 2px #adadad);
}
.dideo-tooltip .tooltiptext::after {
    content: "";
    position: absolute;
    top: 50%;
    right: 100%;
    margin-top: -5px;
    border-width: 5px;
    border-style: solid;
    border-color: transparent black transparent transparent;
}
.dideo-tooltip:hover .tooltiptext {
    visibility: visible;
}
.srg{
    min-width: 750px;
}</style></svg>