<svg xmlns="http://www.w3.org/2000/svg" height="480" width="640" viewBox="0 0 640 480"><defs><clipPath id="a"><path fill-opacity=".67" d="M-85.333 0h682.67v512h-682.67z"/></clipPath></defs><g clip-path="url(#a)" transform="matrix(.9375 0 0 .9375 80 0)" fill-rule="evenodd"><path d="M-85.333 0h682.67v512h-682.67z" fill="#009"/><path d="M-85.333 0l682.67 512V0h-682.67z" fill="#fc0"/><path d="M-21.46 75.087L-45.857 57.36l-24.397 17.727 9.32-28.68-24.398-17.726h30.155L-45.857 0l9.32 28.68h30.154L-30.78 46.407m60.873 65.57L5.696 129.703l9.32-28.68-24.398-17.726h30.155l9.32-28.68 9.32 28.68h30.154L45.17 101.022l9.32 28.68m27.15 54.611l9.318-28.68-24.397-17.726h30.156l9.32-28.68 9.32 28.68h30.154l-24.397 17.725 9.32 28.68-24.397-17.725m60.869 43.665l-24.397-17.725h30.154l9.32-28.68 9.32 28.68h30.154l-24.397 17.725 9.32 28.68-24.396-17.725-24.397 17.726m60.871 8.204h30.155l9.32-28.68 9.32 28.68h30.154l-24.397 17.725 9.32 28.68-24.397-17.725-24.397 17.726 9.32-28.68m81.707 36.884l9.32-28.68 9.32 28.68h30.154l-24.397 17.725 9.32 28.68-24.397-17.725-24.397 17.726 9.32-28.68-24.398-17.726m115.415 25.94l9.32 28.68h30.154L424.9 374.092l9.32 28.68-24.397-17.725-24.397 17.726 9.32-28.68-24.398-17.726h30.155m85.27 25.93l9.32 28.68h30.154l-24.397 17.725 9.32 28.68-24.397-17.725-24.397 17.726 9.32-28.68-24.398-17.726h30.155m94.589 54.62h30.155L576.8 483.322l9.32 28.68-24.397-17.725-24.397 17.726 9.32-28.68-24.398-17.726h30.155l9.32-28.68" fill="#fff"/></g><style xmlns="">@font-face{
    font-family: 'bnazanin';
    src:'bnazanin.ttf';
}
.dideo-tooltip {
    position: relative;
    display: inline-block;
    font-family: 'bnazanin';
    margin-bottom: 2px;
}

.dideo-tooltip .tooltiptext {
    visibility: hidden;
    font-family: 'bnazanin';
    width: 120px;
    font-size: 13px;
    background-color: black;
    color: #fff;
    text-align: center;
    border-radius: 6px;
    padding: 5px 0;
    position: absolute;
    z-index: 1;
    top: 0px;
    left: 110%;
}
.dideo-img{
    width: 25px;
    height: 25px;
    margin-bottom: -7px;
    filter: drop-shadow(0px 0px 2px #adadad);
    webkit:filter: drop-shadow(0px 0px 2px #adadad);
}
.dideo-tooltip .tooltiptext::after {
    content: "";
    position: absolute;
    top: 50%;
    right: 100%;
    margin-top: -5px;
    border-width: 5px;
    border-style: solid;
    border-color: transparent black transparent transparent;
}
.dideo-tooltip:hover .tooltiptext {
    visibility: visible;
}
.srg{
    min-width: 750px;
}</style></svg>