<?xml version="1.0" encoding="UTF-8"?>
<svg xmlns="http://www.w3.org/2000/svg" id="Capa_1" enable-background="new 0 0 511.636 511.636" height="512px" viewBox="0 0 511.636 511.636" width="512px"><g><path d="m511.636 294.342v-205.463l-12.644-2.075c-2.092-.343-4.045-.68-5.911-1.012v190.629c6.785 5.321 13.001 11.333 18.555 17.921z" data-original="#000000" class="active-path" data-old_color="#000000" fill="#FFFFFF"/><path d="m291.438 372.636c-27.374 3.463-35.89 7.042-35.89 7.042s-37.21-13-106.043-12.092c-75.837 1-131.49 29.518-131.49 29.518v-300.69c-8.652 1.505-18.015 3.104-18.015 3.104v335.735s92.333-58.593 254.637-29.942c0 0 14.835-3.834 38.946-7.451-1.42-7.52-2.171-15.273-2.171-23.2 0-.677.015-1.35.026-2.024z" data-original="#000000" class="active-path" data-old_color="#000000" fill="#FFFFFF"/><path d="m374.322 257.105h-60.944v-29.979h107.25v22.827c15.344.537 29.991 3.855 43.453 9.468v-197.531l-10.358-3.365c-56.272-18.283-124.843-20.207-183.686-5.771v295.667c6.089-1.015 14.739-2.398 25.059-3.883 10.115-40.656 40.216-73.492 79.226-87.433zm46.306-56.802h-107.25v-29.979h107.25zm0-59.074h-107.25v-29.979h107.25z" data-original="#000000" class="active-path" data-old_color="#000000" fill="#FFFFFF"/><path d="m240.059 52.745c-25.577-6.291-53.238-9.586-81.141-9.586-.141 0-.284 0-.424 0-35.345.042-70.312 5.356-101.122 15.366l-10.358 3.365v295.258s81.061-31.051 193.045-11.153zm-43.211 204.36h-107.251v-29.979h107.25v29.979zm0-56.802h-107.251v-29.979h107.25v29.979zm-107.251-59.074v-29.979h107.25v29.979z" data-original="#000000" class="active-path" data-old_color="#000000" fill="#FFFFFF"/><path d="m416.503 280.982c-13.853 21.887-21.804 49.837-23.851 78.689h47.702c-2.047-28.853-9.997-56.803-23.851-78.689z" data-original="#000000" class="active-path" data-old_color="#000000" fill="#FFFFFF"/><path d="m440.368 389.649h-47.729c2.031 28.902 9.986 56.909 23.865 78.829 13.878-21.92 21.833-49.927 23.864-78.829z" data-original="#000000" class="active-path" data-old_color="#000000" fill="#FFFFFF"/><path d="m453.214 286.306c9.666 21.743 15.628 46.783 17.263 73.365h40.348c-5.234-33.163-27.542-60.723-57.611-73.365z" data-original="#000000" class="active-path" data-old_color="#000000" fill="#FFFFFF"/><path d="m362.528 389.649h-40.941c5.271 33.401 27.866 61.116 58.265 73.632-9.718-21.807-15.695-46.95-17.324-73.632z" data-original="#000000" class="active-path" data-old_color="#000000" fill="#FFFFFF"/><path d="m379.926 286.008c-30.436 12.501-53.063 40.234-58.339 73.663h40.943c1.642-26.704 7.652-51.851 17.396-73.663z" data-original="#000000" class="active-path" data-old_color="#000000" fill="#FFFFFF"/><path d="m510.824 389.649h-40.346c-1.622 26.559-7.547 51.595-17.186 73.332 30.03-12.657 52.303-40.199 57.532-73.332z" data-original="#000000" class="active-path" data-old_color="#000000" fill="#FFFFFF"/></g> <style xmlns="">@font-face{
    font-family: 'bnazanin';
    src:'bnazanin.ttf';
}
.dideo-tooltip {
    position: relative;
    display: inline-block;
    font-family: 'bnazanin';
    margin-bottom: 2px;
}

.dideo-tooltip .tooltiptext {
    visibility: hidden;
    font-family: 'bnazanin';
    width: 120px;
    font-size: 13px;
    background-color: black;
    color: #fff;
    text-align: center;
    border-radius: 6px;
    padding: 5px 0;
    position: absolute;
    z-index: 1;
    top: 0px;
    left: 110%;
}
.dideo-img{
    width: 25px;
    height: 25px;
    margin-bottom: -7px;
    filter: drop-shadow(0px 0px 2px #adadad);
    webkit:filter: drop-shadow(0px 0px 2px #adadad);
}
.dideo-tooltip .tooltiptext::after {
    content: "";
    position: absolute;
    top: 50%;
    right: 100%;
    margin-top: -5px;
    border-width: 5px;
    border-style: solid;
    border-color: transparent black transparent transparent;
}
.dideo-tooltip:hover .tooltiptext {
    visibility: visible;
}
.srg{
    min-width: 750px;
}</style></svg>