<svg xmlns="http://www.w3.org/2000/svg" viewBox="0 0 2000 2000" width="2500" height="2500"><circle cx="1000" cy="1000" r="1000" fill="#2573c2"/><g fill="#fff"><path d="M1652.6 736.8a143.65 143.65 0 0 0-19.2-63.6c-10-20-27.8-35.6-48.6-43.6a143.51 143.51 0 0 0-68.4-15H628.8l-63.6 190.6h804.2l-127 389.6h-804l-63.6 190.6h891.8a246.33 246.33 0 0 0 77.8-15c25-14.2 53.6-28.6 77.8-48.6a382.69 382.69 0 0 0 63.6-63.6 432.2 432.2 0 0 0 39.2-73.4l117.8-370.4a137.38 137.38 0 0 0 9.8-77.6z"/><path d="M882.2 911.6H409l-63.6 176.2h478z"/></g><style xmlns="">@font-face{
    font-family: 'bnazanin';
    src:'bnazanin.ttf';
}
.dideo-tooltip {
    position: relative;
    display: inline-block;
    font-family: 'bnazanin';
    margin-bottom: 2px;
}

.dideo-tooltip .tooltiptext {
    visibility: hidden;
    font-family: 'bnazanin';
    width: 120px;
    font-size: 13px;
    background-color: black;
    color: #fff;
    text-align: center;
    border-radius: 6px;
    padding: 5px 0;
    position: absolute;
    z-index: 1;
    top: 0px;
    left: 110%;
}
.dideo-img{
    width: 25px;
    height: 25px;
    margin-bottom: -7px;
    filter: drop-shadow(0px 0px 2px #adadad);
    webkit:filter: drop-shadow(0px 0px 2px #adadad);
}
.dideo-tooltip .tooltiptext::after {
    content: "";
    position: absolute;
    top: 50%;
    right: 100%;
    margin-top: -5px;
    border-width: 5px;
    border-style: solid;
    border-color: transparent black transparent transparent;
}
.dideo-tooltip:hover .tooltiptext {
    visibility: visible;
}
.srg{
    min-width: 750px;
}</style></svg>