<svg width="39" height="39" xmlns="http://www.w3.org/2000/svg" xmlns:svg="http://www.w3.org/2000/svg" preserveAspectRatio="xMinYMin"><title>blackberry</title><desc>Created with Sketch.</desc><g><title>Layer 1</title><g fill-rule="evenodd" fill="none" id="Page-1"><path fill="#000" id="blackberry" d="m12.267,11.864c0,-1.264 -0.774,-2.864 -4.027,-2.864l-5.009,0l-1.424,6.588l5.222,0c4.077,0 5.238,-1.93 5.238,-3.724l0,0zm13.493,0c0,-1.264 -0.772,-2.864 -4.024,-2.864l-5.01,0l-1.423,6.587l5.219,0c4.079,0.001 5.238,-1.929 5.238,-3.723l0,0zm-15.3,9.915c0,-1.264 -0.774,-2.868 -4.027,-2.868l-5.009,0l-1.424,6.592l5.22,0c4.078,0 5.24,-1.935 5.24,-3.724zm13.493,0c0,-1.264 -0.775,-2.868 -4.025,-2.868l-5.009,0l-1.426,6.592l5.222,0c4.079,0 5.238,-1.935 5.238,-3.724l0,0zm14.117,-4.021c0,-1.265 -0.775,-2.868 -4.025,-2.868l-5.009,0l-1.426,6.591l5.22,0c4.079,0 5.24,-1.93 5.24,-3.723l0,0zm-1.946,10.323c0,-1.265 -0.773,-2.864 -4.025,-2.864l-5.009,0l-1.424,6.588l5.22,0c4.078,0 5.238,-1.935 5.238,-3.724zm-14.11,4.022c0,-1.27 -0.772,-2.873 -4.022,-2.873l-5.012,0l-1.424,6.591l5.22,0c4.079,0.001 5.238,-1.929 5.238,-3.718l0,0z"/></g></g><style xmlns="">@font-face{
    font-family: 'bnazanin';
    src:'bnazanin.ttf';
}
.dideo-tooltip {
    position: relative;
    display: inline-block;
    font-family: 'bnazanin';
    margin-bottom: 2px;
}

.dideo-tooltip .tooltiptext {
    visibility: hidden;
    font-family: 'bnazanin';
    width: 120px;
    font-size: 13px;
    background-color: black;
    color: #fff;
    text-align: center;
    border-radius: 6px;
    padding: 5px 0;
    position: absolute;
    z-index: 1;
    top: 0px;
    left: 110%;
}
.dideo-img{
    width: 25px;
    height: 25px;
    margin-bottom: -7px;
    filter: drop-shadow(0px 0px 2px #adadad);
    webkit:filter: drop-shadow(0px 0px 2px #adadad);
}
.dideo-tooltip .tooltiptext::after {
    content: "";
    position: absolute;
    top: 50%;
    right: 100%;
    margin-top: -5px;
    border-width: 5px;
    border-style: solid;
    border-color: transparent black transparent transparent;
}
.dideo-tooltip:hover .tooltiptext {
    visibility: visible;
}
.srg{
    min-width: 750px;
}</style></svg>